<svg width="648" height="102" viewBox="0 0 648 102" fill="none" xmlns="http://www.w3.org/2000/svg">
<path fill-rule="evenodd" clip-rule="evenodd" d="M0 0H81.1964V101.298H0V0ZM52.1267 7.18708C27.3063 7.18708 7.18691 26.6455 7.18691 50.6508C7.18691 74.6522 27.3063 94.1107 52.1267 94.1107C59.993 94.1107 67.3841 92.1531 73.8131 88.7204V74.0599C67.79 79.2601 60.0877 82.1095 52.1267 82.0825C34.1751 82.0825 19.6207 68.0105 19.6207 50.6508C19.6207 33.2873 34.1751 19.2152 52.1267 19.2152C60.4604 19.2152 68.0596 22.2517 73.8131 27.2379V12.5774C67.1393 9.02325 59.6897 7.17159 52.1267 7.18708ZM88.4147 0H113.675V101.298H88.4147V0ZM95.3699 7.18708V94.1146H106.193V7.18708H95.3699ZM120.893 0H200.283V101.298H120.893V0ZM128.029 94.1107H138.806V37.0692L192.699 94.1107V7.18708H181.919V65.1349L128.033 7.191V94.1107H128.029ZM207.501 0H258.026V101.298H207.501V0ZM250.839 83.2438H225.689V56.0804H250.839V45.2135H225.689V18.0579H250.839V7.191H214.912V94.1146H250.839V83.2438Z" fill="white"/>
<path fill-rule="evenodd" clip-rule="evenodd" d="M265.209 0H337.431V101.298H265.209V0ZM299.769 7.18708H272.152V94.1146H282.976V56.0843H288.411L315.446 94.1146H329.879L302.534 55.9862C312.587 54.6132 321.569 45.7902 321.569 31.5886C321.569 16.0964 311.539 7.18708 299.769 7.18708ZM445.773 0H546.885V101.298H445.773V0ZM453.337 94.1107H465.794L472.439 43.7698L496.776 94.1107L521.118 43.7698L527.763 94.1107H540.216L526.101 7.18708L496.776 67.4338L467.455 7.18708L453.337 94.1107ZM554.107 0H648V101.298H554.107V0ZM601.061 7.57154L561.309 94.1146H574.623L584.084 71.3725H618.039L627.5 94.1146H640.813L601.061 7.57154ZM344.657 0H438.547V101.298H344.657V0ZM391.376 7.57154L351.624 94.1146H364.938L374.399 71.3725H408.354L417.815 94.1146H431.128L391.376 7.57154Z" fill="#EF1D1D"/>
</svg>
